<svg width="481" height="380" viewBox="0 0 481 380" fill="none" xmlns="http://www.w3.org/2000/svg">
<path fill-rule="evenodd" clip-rule="evenodd" d="M24.2364 288.315V70.9297L144.813 51.2722C153.894 49.7918 161.822 49.5726 168.597 50.6147L146.254 46.9722C139.479 45.9301 131.552 46.1493 122.471 47.6297L1.8938 67.2872V284.673L24.2364 288.315Z" fill="#1B007E" fill-opacity="0.2"/>
<path fill-rule="evenodd" clip-rule="evenodd" d="M24.2364 288.315V70.9297L144.813 51.2722C153.894 49.7918 161.822 49.5726 168.597 50.6147L146.254 46.9722C139.479 45.9301 131.552 46.1493 122.471 47.6297L1.8938 67.2872V284.673L24.2364 288.315Z" fill="#000C1A"/>
<path fill-rule="evenodd" clip-rule="evenodd" d="M168.597 50.6148C176.55 51.8381 182.915 54.7995 187.69 59.499C196.692 68.1762 201.193 84.2121 201.193 107.607C201.193 127.482 195.587 142.578 184.374 152.894C198.746 159.454 205.931 172.878 205.931 193.168C205.931 216.563 201.43 234.066 192.428 245.678C183.585 257.264 169.292 264.667 149.551 267.886L24.2364 288.315L1.8938 284.673L127.208 264.243C146.949 261.025 161.242 253.622 170.085 242.036C179.088 230.424 183.588 212.92 183.588 189.525C183.588 169.236 176.403 155.812 162.031 149.252C173.245 138.935 178.851 123.84 178.851 103.964C178.851 80.5696 174.349 64.5337 165.348 55.8565C160.572 51.157 154.208 48.1956 146.254 46.9723L168.597 50.6148Z" fill="#1B007E" fill-opacity="0.2"/>
<path fill-rule="evenodd" clip-rule="evenodd" d="M168.597 50.6148C176.55 51.8381 182.915 54.7995 187.69 59.499C196.692 68.1762 201.193 84.2121 201.193 107.607C201.193 127.482 195.587 142.578 184.374 152.894C198.746 159.454 205.931 172.878 205.931 193.168C205.931 216.563 201.43 234.066 192.428 245.678C183.585 257.264 169.292 264.667 149.551 267.886L24.2364 288.315L1.8938 284.673L127.208 264.243C146.949 261.025 161.242 253.622 170.085 242.036C179.088 230.424 183.588 212.92 183.588 189.525C183.588 169.236 176.403 155.812 162.031 149.252C173.245 138.935 178.851 123.84 178.851 103.964C178.851 80.5696 174.349 64.5337 165.348 55.8565C160.572 51.157 154.208 48.1956 146.254 46.9723L168.597 50.6148Z" fill="#000C1A"/>
<path fill-rule="evenodd" clip-rule="evenodd" d="M73.9832 149.153L134.153 139.343C140.471 138.313 144.813 136.57 147.182 134.114C149.551 131.657 150.736 126.909 150.736 119.87C150.736 112.831 149.551 108.469 147.182 106.785C146.282 106.145 145.097 105.701 143.627 105.453L121.284 101.811C122.754 102.059 123.939 102.503 124.84 103.143C127.208 104.827 128.393 109.188 128.393 116.228C128.393 123.267 127.208 128.015 124.84 130.471C122.471 132.928 118.128 134.671 111.81 135.701L51.6406 145.51L73.9832 149.153Z" fill="#1B007E" fill-opacity="0.2"/>
<path fill-rule="evenodd" clip-rule="evenodd" d="M73.9832 149.153L134.153 139.343C140.471 138.313 144.813 136.57 147.182 134.114C149.551 131.657 150.736 126.909 150.736 119.87C150.736 112.831 149.551 108.469 147.182 106.785C146.282 106.145 145.097 105.701 143.627 105.453L121.284 101.811C122.754 102.059 123.939 102.503 124.84 103.143C127.208 104.827 128.393 109.188 128.393 116.228C128.393 123.267 127.208 128.015 124.84 130.471C122.471 132.928 118.128 134.671 111.81 135.701L51.6406 145.51L73.9832 149.153Z" fill="#000C1A"/>
<path fill-rule="evenodd" clip-rule="evenodd" d="M143.627 105.453C141.228 105.048 138.07 105.165 134.153 105.804L73.9832 115.613V149.153L51.6406 145.51V111.971L111.81 102.161C115.727 101.523 118.885 101.406 121.284 101.811L143.627 105.453Z" fill="#1B007E" fill-opacity="0.2"/>
<path fill-rule="evenodd" clip-rule="evenodd" d="M143.627 105.453C141.228 105.048 138.07 105.165 134.153 105.804L73.9832 115.613V149.153L51.6406 145.51V111.971L111.81 102.161C115.727 101.523 118.885 101.406 121.284 101.811L143.627 105.453Z" fill="#000C1A"/>
<path fill-rule="evenodd" clip-rule="evenodd" d="M73.9832 227.101L138.891 216.519C145.208 215.489 149.551 213.746 151.92 211.289C154.289 208.833 155.473 204.085 155.473 197.046C155.473 190.006 154.289 185.748 151.92 184.272C151.08 183.622 149.932 183.172 148.476 182.921L126.133 179.279C127.589 179.529 128.737 179.979 129.577 180.629C131.946 182.106 133.131 186.364 133.131 193.403C133.131 200.443 131.946 205.191 129.577 207.647C127.208 210.104 122.866 211.847 116.549 212.877L51.6406 223.458L73.9832 227.101Z" fill="#1B007E" fill-opacity="0.2"/>
<path fill-rule="evenodd" clip-rule="evenodd" d="M73.9832 227.101L138.891 216.519C145.208 215.489 149.551 213.746 151.92 211.289C154.289 208.833 155.473 204.085 155.473 197.046C155.473 190.006 154.289 185.748 151.92 184.272C151.08 183.622 149.932 183.172 148.476 182.921L126.133 179.279C127.589 179.529 128.737 179.979 129.577 180.629C131.946 182.106 133.131 186.364 133.131 193.403C133.131 200.443 131.946 205.191 129.577 207.647C127.208 210.104 122.866 211.847 116.549 212.877L51.6406 223.458L73.9832 227.101Z" fill="#000C1A"/>
<path fill-rule="evenodd" clip-rule="evenodd" d="M148.476 182.921C146.101 182.512 142.906 182.635 138.891 183.29L73.9832 193.872V227.101L51.6406 223.458V190.229L116.549 179.647C120.563 178.993 123.758 178.87 126.133 179.279L148.476 182.921Z" fill="#1B007E" fill-opacity="0.2"/>
<path fill-rule="evenodd" clip-rule="evenodd" d="M148.476 182.921C146.101 182.512 142.906 182.635 138.891 183.29L73.9832 193.872V227.101L51.6406 223.458V190.229L116.549 179.647C120.563 178.993 123.758 178.87 126.133 179.279L148.476 182.921Z" fill="#000C1A"/>
<path fill-rule="evenodd" clip-rule="evenodd" d="M216.478 256.974V39.5888L266.225 31.4787L243.882 27.8362L194.136 35.9463V253.332L216.478 256.974Z" fill="#1B007E" fill-opacity="0.2"/>
<path fill-rule="evenodd" clip-rule="evenodd" d="M216.478 256.974V39.5888L266.225 31.4787L243.882 27.8362L194.136 35.9463V253.332L216.478 256.974Z" fill="#000C1A"/>
<path fill-rule="evenodd" clip-rule="evenodd" d="M266.225 31.4787V248.864L216.478 256.974L194.136 253.332L243.882 245.222V27.8362L266.225 31.4787Z" fill="#1B007E" fill-opacity="0.2"/>
<path fill-rule="evenodd" clip-rule="evenodd" d="M266.225 31.4787V248.864L216.478 256.974L194.136 253.332L243.882 245.222V27.8362L266.225 31.4787Z" fill="#000C1A"/>
<path fill-rule="evenodd" clip-rule="evenodd" d="M480.026 94.757V214.009L444.492 219.802L422.149 216.159L457.683 210.366V91.1146L480.026 94.757Z" fill="#1B007E" fill-opacity="0.2"/>
<path fill-rule="evenodd" clip-rule="evenodd" d="M480.026 94.757V214.009L444.492 219.802L422.149 216.159L457.683 210.366V91.1146L480.026 94.757Z" fill="#000C1A"/>
<path fill-rule="evenodd" clip-rule="evenodd" d="M444.492 219.802L440.465 181.018L418.122 177.376L422.149 216.159L444.492 219.802Z" fill="#1B007E" fill-opacity="0.2"/>
<path fill-rule="evenodd" clip-rule="evenodd" d="M444.492 219.802L440.465 181.018L418.122 177.376L422.149 216.159L444.492 219.802Z" fill="#000C1A"/>
<path fill-rule="evenodd" clip-rule="evenodd" d="M440.465 181.018C435.886 197.706 428.226 210.342 417.487 218.925C406.748 227.3 391.666 233.072 372.24 236.239L360.87 238.093C347.737 240.234 336.224 240.507 326.332 238.913L303.989 235.271C313.881 236.865 325.394 236.591 338.527 234.45L349.898 232.596C369.323 229.429 384.406 223.658 395.144 215.282C405.883 206.699 413.543 194.064 418.122 177.376L440.465 181.018Z" fill="#1B007E" fill-opacity="0.2"/>
<path fill-rule="evenodd" clip-rule="evenodd" d="M440.465 181.018C435.886 197.706 428.226 210.342 417.487 218.925C406.748 227.3 391.666 233.072 372.24 236.239L360.87 238.093C347.737 240.234 336.224 240.507 326.332 238.913L303.989 235.271C313.881 236.865 325.394 236.591 338.527 234.45L349.898 232.596C369.323 229.429 384.406 223.658 395.144 215.282C405.883 206.699 413.543 194.064 418.122 177.376L440.465 181.018Z" fill="#000C1A"/>
<path fill-rule="evenodd" clip-rule="evenodd" d="M326.332 238.913C313.741 236.885 303.776 231.831 296.436 223.753C283.328 209.12 276.774 180.686 276.774 138.452C276.774 96.2167 283.328 65.7495 296.436 47.0498C309.543 28.1432 331.022 16.2567 360.87 11.3906L395.93 5.67486C410.143 3.35766 422.521 3.02191 433.062 4.66763L410.72 1.02515C400.178 -0.620573 387.801 -0.284824 373.587 2.03238L338.527 7.74816C308.679 12.6142 287.201 24.5007 274.093 43.4073C260.985 62.107 254.431 92.5742 254.431 134.809C254.431 177.043 260.985 205.478 274.093 220.111C281.433 228.189 291.399 233.242 303.989 235.271L326.332 238.913Z" fill="#1B007E" fill-opacity="0.2"/>
<path fill-rule="evenodd" clip-rule="evenodd" d="M326.332 238.913C313.741 236.885 303.776 231.831 296.436 223.753C283.328 209.12 276.774 180.686 276.774 138.452C276.774 96.2167 283.328 65.7495 296.436 47.0498C309.543 28.1432 331.022 16.2567 360.87 11.3906L395.93 5.67486C410.143 3.35766 422.521 3.02191 433.062 4.66763L410.72 1.02515C400.178 -0.620573 387.801 -0.284824 373.587 2.03238L338.527 7.74816C308.679 12.6142 287.201 24.5007 274.093 43.4073C260.985 62.107 254.431 92.5742 254.431 134.809C254.431 177.043 260.985 205.478 274.093 220.111C281.433 228.189 291.399 233.242 303.989 235.271L326.332 238.913Z" fill="#000C1A"/>
<path fill-rule="evenodd" clip-rule="evenodd" d="M433.062 4.66763C443.604 6.31335 452.31 9.94055 459.179 15.5492C472.919 26.7665 479.789 46.971 479.789 76.1627L431.7 84.0025L409.358 80.36L457.446 72.5202C457.446 43.3285 450.576 23.124 436.836 11.9068C429.967 6.29807 421.261 2.67087 410.72 1.02515L433.062 4.66763Z" fill="#1B007E" fill-opacity="0.2"/>
<path fill-rule="evenodd" clip-rule="evenodd" d="M433.062 4.66763C443.604 6.31335 452.31 9.94055 459.179 15.5492C472.919 26.7665 479.789 46.971 479.789 76.1627L431.7 84.0025L409.358 80.36L457.446 72.5202C457.446 43.3285 450.576 23.124 436.836 11.9068C429.967 6.29807 421.261 2.67087 410.72 1.02515L433.062 4.66763Z" fill="#000C1A"/>
<path fill-rule="evenodd" clip-rule="evenodd" d="M431.7 84.0025C432.016 75.8767 429.41 69.8836 423.883 66.0228C421.672 64.4785 418.855 63.4141 415.431 62.8294L393.088 59.187C396.512 59.7716 399.329 60.8361 401.541 62.3803C407.067 66.2411 409.673 72.2342 409.358 80.36L431.7 84.0025Z" fill="#1B007E" fill-opacity="0.2"/>
<path fill-rule="evenodd" clip-rule="evenodd" d="M431.7 84.0025C432.016 75.8767 429.41 69.8836 423.883 66.0228C421.672 64.4785 418.855 63.4141 415.431 62.8294L393.088 59.187C396.512 59.7716 399.329 60.8361 401.541 62.3803C407.067 66.2411 409.673 72.2342 409.358 80.36L431.7 84.0025Z" fill="#000C1A"/>
<path fill-rule="evenodd" clip-rule="evenodd" d="M415.431 62.8294C410.295 61.9525 403.795 62.155 395.93 63.4372L360.87 69.153C346.183 71.5474 336.47 76.9611 331.732 85.3936C327.153 93.8005 324.862 108.873 324.862 130.612C324.862 152.351 327.153 166.677 331.732 173.59C334.385 177.447 338.599 179.849 344.372 180.795L322.029 177.153C316.256 176.206 312.043 173.805 309.39 169.948C304.81 163.034 302.52 148.708 302.52 126.969C302.52 105.231 304.81 90.158 309.39 81.7512C314.127 73.3186 323.84 67.9049 338.527 65.5105L373.587 59.7947C381.452 58.5126 387.952 58.31 393.088 59.1869L415.431 62.8294Z" fill="#1B007E" fill-opacity="0.2"/>
<path fill-rule="evenodd" clip-rule="evenodd" d="M415.431 62.8294C410.295 61.9525 403.795 62.155 395.93 63.4372L360.87 69.153C346.183 71.5474 336.47 76.9611 331.732 85.3936C327.153 93.8005 324.862 108.873 324.862 130.612C324.862 152.351 327.153 166.677 331.732 173.59C334.385 177.447 338.599 179.849 344.372 180.795L322.029 177.153C316.256 176.206 312.043 173.805 309.39 169.948C304.81 163.034 302.52 148.708 302.52 126.969C302.52 105.231 304.81 90.158 309.39 81.7512C314.127 73.3186 323.84 67.9049 338.527 65.5105L373.587 59.7947C381.452 58.5126 387.952 58.31 393.088 59.1869L415.431 62.8294Z" fill="#000C1A"/>
<path fill-rule="evenodd" clip-rule="evenodd" d="M344.372 180.795C348.908 181.539 354.407 181.384 360.87 180.33L395.93 174.614C406.037 172.967 413.697 169.958 418.908 165.589C424.277 161.194 427.91 154.804 429.805 146.422L407.462 142.779C405.567 151.162 401.935 157.551 396.565 161.946C391.354 166.316 383.694 169.324 373.587 170.972L338.527 176.688C332.065 177.741 326.565 177.896 322.029 177.153L344.372 180.795Z" fill="#1B007E" fill-opacity="0.2"/>
<path fill-rule="evenodd" clip-rule="evenodd" d="M344.372 180.795C348.908 181.539 354.407 181.384 360.87 180.33L395.93 174.614C406.037 172.967 413.697 169.958 418.908 165.589C424.277 161.194 427.91 154.804 429.805 146.422L407.462 142.779C405.567 151.162 401.935 157.551 396.565 161.946C391.354 166.316 383.694 169.324 373.587 170.972L338.527 176.688C332.065 177.741 326.565 177.896 322.029 177.153L344.372 180.795Z" fill="#000C1A"/>
<path fill-rule="evenodd" clip-rule="evenodd" d="M429.805 146.422L372.714 155.729L350.372 152.087L407.462 142.779L429.805 146.422Z" fill="#1B007E" fill-opacity="0.2"/>
<path fill-rule="evenodd" clip-rule="evenodd" d="M429.805 146.422L372.714 155.729L350.372 152.087L407.462 142.779L429.805 146.422Z" fill="#000C1A"/>
<path fill-rule="evenodd" clip-rule="evenodd" d="M372.714 155.729V112.252L480.026 94.757L457.683 91.1146L350.372 108.609V152.087L372.714 155.729Z" fill="#1B007E" fill-opacity="0.2"/>
<path fill-rule="evenodd" clip-rule="evenodd" d="M372.714 155.729V112.252L480.026 94.757L457.683 91.1146L350.372 108.609V152.087L372.714 155.729Z" fill="#000C1A"/>
<path d="M184.374 152.894C198.746 159.454 205.931 172.878 205.931 193.168C205.931 216.563 201.43 234.066 192.428 245.678C183.585 257.264 169.292 264.667 149.551 267.886L24.2363 288.315V70.9297L144.813 51.2723C164.554 48.0539 178.846 50.7962 187.69 59.499C196.692 68.1762 201.193 84.2121 201.193 107.607C201.193 127.482 195.587 142.578 184.374 152.894ZM134.153 105.804L73.9832 115.613V149.153L134.153 139.343C140.471 138.313 144.813 136.57 147.182 134.114C149.551 131.657 150.736 126.909 150.736 119.87C150.736 112.831 149.551 108.469 147.182 106.785C144.813 105.101 140.471 104.774 134.153 105.804ZM73.9832 227.101L138.891 216.519C145.208 215.489 149.551 213.746 151.92 211.289C154.289 208.833 155.473 204.085 155.473 197.046C155.473 190.006 154.289 185.748 151.92 184.272C149.709 182.562 145.366 182.234 138.891 183.29L73.9832 193.872V227.101ZM266.225 248.864L216.478 256.975V39.5888L266.225 31.4788V248.864ZM372.714 112.252L480.026 94.7571V214.009L444.492 219.802L440.465 181.018C435.886 197.706 428.226 210.342 417.487 218.925C406.748 227.3 391.666 233.072 372.24 236.239L360.87 238.093C331.022 242.959 309.543 238.179 296.435 223.753C283.328 209.12 276.774 180.686 276.774 138.452C276.774 96.2167 283.328 65.7495 296.435 47.0499C309.543 28.1432 331.022 16.2567 360.87 11.3907L395.93 5.67489C424.357 1.04049 445.44 4.3319 459.179 15.5493C472.919 26.7665 479.789 46.971 479.789 76.1627L431.7 84.0025C432.016 75.8767 429.41 69.8836 423.883 66.0228C418.356 62.1622 409.038 61.3003 395.93 63.4372L360.87 69.153C346.183 71.5474 336.47 76.9611 331.732 85.3936C327.153 93.8005 324.862 108.873 324.862 130.612C324.862 152.351 327.153 166.677 331.732 173.59C336.47 180.478 346.183 182.725 360.87 180.33L395.93 174.615C406.037 172.967 413.697 169.958 418.908 165.589C424.277 161.194 427.91 154.804 429.805 146.422L372.714 155.729V112.252Z" fill="#5D35ED"/>
<path d="M184.374 152.894C198.746 159.454 205.931 172.878 205.931 193.168C205.931 216.563 201.43 234.066 192.428 245.678C183.585 257.264 169.292 264.667 149.551 267.886L24.2363 288.315V70.9297L144.813 51.2723C164.554 48.0539 178.846 50.7962 187.69 59.499C196.692 68.1762 201.193 84.2121 201.193 107.607C201.193 127.482 195.587 142.578 184.374 152.894ZM134.153 105.804L73.9832 115.613V149.153L134.153 139.343C140.471 138.313 144.813 136.57 147.182 134.114C149.551 131.657 150.736 126.909 150.736 119.87C150.736 112.831 149.551 108.469 147.182 106.785C144.813 105.101 140.471 104.774 134.153 105.804ZM73.9832 227.101L138.891 216.519C145.208 215.489 149.551 213.746 151.92 211.289C154.289 208.833 155.473 204.085 155.473 197.046C155.473 190.006 154.289 185.748 151.92 184.272C149.709 182.562 145.366 182.234 138.891 183.29L73.9832 193.872V227.101ZM266.225 248.864L216.478 256.975V39.5888L266.225 31.4788V248.864ZM372.714 112.252L480.026 94.7571V214.009L444.492 219.802L440.465 181.018C435.886 197.706 428.226 210.342 417.487 218.925C406.748 227.3 391.666 233.072 372.24 236.239L360.87 238.093C331.022 242.959 309.543 238.179 296.435 223.753C283.328 209.12 276.774 180.686 276.774 138.452C276.774 96.2167 283.328 65.7495 296.435 47.0499C309.543 28.1432 331.022 16.2567 360.87 11.3907L395.93 5.67489C424.357 1.04049 445.44 4.3319 459.179 15.5493C472.919 26.7665 479.789 46.971 479.789 76.1627L431.7 84.0025C432.016 75.8767 429.41 69.8836 423.883 66.0228C418.356 62.1622 409.038 61.3003 395.93 63.4372L360.87 69.153C346.183 71.5474 336.47 76.9611 331.732 85.3936C327.153 93.8005 324.862 108.873 324.862 130.612C324.862 152.351 327.153 166.677 331.732 173.59C336.47 180.478 346.183 182.725 360.87 180.33L395.93 174.615C406.037 172.967 413.697 169.958 418.908 165.589C424.277 161.194 427.91 154.804 429.805 146.422L372.714 155.729V112.252Z" fill="url(#paint0_linear_18_3018)"/>
<path fill-rule="evenodd" clip-rule="evenodd" d="M187.784 333.628C186.174 325.735 182.403 321.42 176.166 320.331L152.93 316.543C159.167 317.632 162.937 321.947 164.548 329.84L187.784 333.628Z" fill="black"/>
<path fill-rule="evenodd" clip-rule="evenodd" d="M187.784 333.628C186.174 325.735 182.403 321.42 176.166 320.331L152.93 316.543C159.167 317.632 162.937 321.947 164.548 329.84L187.784 333.628Z" fill="url(#paint1_linear_18_3018)"/>
<path fill-rule="evenodd" clip-rule="evenodd" d="M187.784 333.628C186.174 325.735 182.403 321.42 176.166 320.331L152.93 316.543C159.167 317.632 162.937 321.947 164.548 329.84L187.784 333.628Z" stroke="url(#paint2_linear_18_3018)" stroke-width="0.3" stroke-linejoin="round"/>
<path fill-rule="evenodd" clip-rule="evenodd" d="M187.784 333.628C186.174 325.735 182.403 321.42 176.166 320.331L152.93 316.543C159.167 317.632 162.937 321.947 164.548 329.84L187.784 333.628Z" stroke="#383838" stroke-opacity="0.5" stroke-width="0.3" stroke-linejoin="round"/>
<path fill-rule="evenodd" clip-rule="evenodd" d="M176.166 320.331C182.403 317.208 186.174 311.664 187.784 303.245L164.548 299.457C162.937 307.875 159.167 313.42 152.93 316.543L176.166 320.331Z" fill="black"/>
<path fill-rule="evenodd" clip-rule="evenodd" d="M176.166 320.331C182.403 317.208 186.174 311.664 187.784 303.245L164.548 299.457C162.937 307.875 159.167 313.42 152.93 316.543L176.166 320.331Z" fill="url(#paint3_linear_18_3018)"/>
<path fill-rule="evenodd" clip-rule="evenodd" d="M176.166 320.331C182.403 317.208 186.174 311.664 187.784 303.245L164.548 299.457C162.937 307.875 159.167 313.42 152.93 316.543L176.166 320.331Z" stroke="url(#paint4_linear_18_3018)" stroke-width="0.3" stroke-linejoin="round"/>
<path fill-rule="evenodd" clip-rule="evenodd" d="M176.166 320.331C182.403 317.208 186.174 311.664 187.784 303.245L164.548 299.457C162.937 307.875 159.167 313.42 152.93 316.543L176.166 320.331Z" stroke="#383838" stroke-opacity="0.5" stroke-width="0.3" stroke-linejoin="round"/>
<path fill-rule="evenodd" clip-rule="evenodd" d="M187.784 303.245C189.395 311.139 193.165 315.454 199.402 316.543C193.165 319.665 189.395 325.21 187.784 333.628L164.548 329.84C166.158 321.422 169.929 315.877 176.166 312.755C169.929 311.666 166.158 307.35 164.548 299.457L187.784 303.245Z" fill="black"/>
<path fill-rule="evenodd" clip-rule="evenodd" d="M187.784 303.245C189.395 311.139 193.165 315.454 199.402 316.543C193.165 319.665 189.395 325.21 187.784 333.628L164.548 329.84C166.158 321.422 169.929 315.877 176.166 312.755C169.929 311.666 166.158 307.35 164.548 299.457L187.784 303.245Z" fill="url(#paint5_linear_18_3018)"/>
<path fill-rule="evenodd" clip-rule="evenodd" d="M187.784 303.245C189.395 311.139 193.165 315.454 199.402 316.543C193.165 319.665 189.395 325.21 187.784 333.628L164.548 329.84C166.158 321.422 169.929 315.877 176.166 312.755C169.929 311.666 166.158 307.35 164.548 299.457L187.784 303.245Z" stroke="url(#paint6_linear_18_3018)" stroke-width="0.3" stroke-linejoin="round"/>
<path fill-rule="evenodd" clip-rule="evenodd" d="M187.784 303.245C189.395 311.139 193.165 315.454 199.402 316.543C193.165 319.665 189.395 325.21 187.784 333.628L164.548 329.84C166.158 321.422 169.929 315.877 176.166 312.755C169.929 311.666 166.158 307.35 164.548 299.457L187.784 303.245Z" stroke="#383838" stroke-opacity="0.5" stroke-width="0.3" stroke-linejoin="round"/>
<path fill-rule="evenodd" clip-rule="evenodd" d="M24.2363 378.972V269.159L93.3113 257.898C98.7395 257.013 103.449 256.835 107.439 257.366L84.2023 253.577C80.2123 253.047 75.5032 253.225 70.075 254.11L1 265.371V375.184L24.2363 378.972Z" fill="black"/>
<path fill-rule="evenodd" clip-rule="evenodd" d="M24.2363 378.972V269.159L93.3113 257.898C98.7395 257.013 103.449 256.835 107.439 257.366L84.2023 253.577C80.2123 253.047 75.5032 253.225 70.075 254.11L1 265.371V375.184L24.2363 378.972Z" fill="url(#paint7_linear_18_3018)"/>
<path fill-rule="evenodd" clip-rule="evenodd" d="M24.2363 378.972V269.159L93.3113 257.898C98.7395 257.013 103.449 256.835 107.439 257.366L84.2023 253.577C80.2123 253.047 75.5032 253.225 70.075 254.11L1 265.371V375.184L24.2363 378.972Z" stroke="url(#paint8_linear_18_3018)" stroke-width="0.3" stroke-linejoin="round"/>
<path fill-rule="evenodd" clip-rule="evenodd" d="M24.2363 378.972V269.159L93.3113 257.898C98.7395 257.013 103.449 256.835 107.439 257.366L84.2023 253.577C80.2123 253.047 75.5032 253.225 70.075 254.11L1 265.371V375.184L24.2363 378.972Z" stroke="#383838" stroke-opacity="0.5" stroke-width="0.3" stroke-linejoin="round"/>
<path fill-rule="evenodd" clip-rule="evenodd" d="M107.439 257.366C111.761 257.94 115.24 259.345 117.874 261.58C123.031 265.864 125.609 273.915 125.609 285.733C125.609 295.773 122.398 303.461 115.974 308.796C124.207 311.951 128.323 318.653 128.323 328.902C128.323 340.72 125.745 349.612 120.588 355.577C115.522 361.528 107.334 365.425 96.0254 367.268L24.2363 378.972L1 375.184L72.789 363.48C84.098 361.637 92.2857 357.739 97.3521 351.789C102.509 345.824 105.087 336.932 105.087 325.114C105.087 314.865 100.971 308.163 92.7379 305.008C99.1618 299.672 102.373 291.985 102.373 281.945C102.373 270.127 99.7946 262.076 94.6379 257.792C92.0033 255.557 88.5248 254.152 84.2023 253.577L107.439 257.366Z" fill="black"/>
<path fill-rule="evenodd" clip-rule="evenodd" d="M107.439 257.366C111.761 257.94 115.24 259.345 117.874 261.58C123.031 265.864 125.609 273.915 125.609 285.733C125.609 295.773 122.398 303.461 115.974 308.796C124.207 311.951 128.323 318.653 128.323 328.902C128.323 340.72 125.745 349.612 120.588 355.577C115.522 361.528 107.334 365.425 96.0254 367.268L24.2363 378.972L1 375.184L72.789 363.48C84.098 361.637 92.2857 357.739 97.3521 351.789C102.509 345.824 105.087 336.932 105.087 325.114C105.087 314.865 100.971 308.163 92.7379 305.008C99.1618 299.672 102.373 291.985 102.373 281.945C102.373 270.127 99.7946 262.076 94.6379 257.792C92.0033 255.557 88.5248 254.152 84.2023 253.577L107.439 257.366Z" fill="url(#paint9_linear_18_3018)"/>
<path fill-rule="evenodd" clip-rule="evenodd" d="M107.439 257.366C111.761 257.94 115.24 259.345 117.874 261.58C123.031 265.864 125.609 273.915 125.609 285.733C125.609 295.773 122.398 303.461 115.974 308.796C124.207 311.951 128.323 318.653 128.323 328.902C128.323 340.72 125.745 349.612 120.588 355.577C115.522 361.528 107.334 365.425 96.0254 367.268L24.2363 378.972L1 375.184L72.789 363.48C84.098 361.637 92.2857 357.739 97.3521 351.789C102.509 345.824 105.087 336.932 105.087 325.114C105.087 314.865 100.971 308.163 92.7379 305.008C99.1618 299.672 102.373 291.985 102.373 281.945C102.373 270.127 99.7946 262.076 94.6379 257.792C92.0033 255.557 88.5248 254.152 84.2023 253.577L107.439 257.366Z" stroke="url(#paint10_linear_18_3018)" stroke-width="0.3" stroke-linejoin="round"/>
<path fill-rule="evenodd" clip-rule="evenodd" d="M107.439 257.366C111.761 257.94 115.24 259.345 117.874 261.58C123.031 265.864 125.609 273.915 125.609 285.733C125.609 295.773 122.398 303.461 115.974 308.796C124.207 311.951 128.323 318.653 128.323 328.902C128.323 340.72 125.745 349.612 120.588 355.577C115.522 361.528 107.334 365.425 96.0254 367.268L24.2363 378.972L1 375.184L72.789 363.48C84.098 361.637 92.2857 357.739 97.3521 351.789C102.509 345.824 105.087 336.932 105.087 325.114C105.087 314.865 100.971 308.163 92.7379 305.008C99.1618 299.672 102.373 291.985 102.373 281.945C102.373 270.127 99.7946 262.076 94.6379 257.792C92.0033 255.557 88.5248 254.152 84.2023 253.577L107.439 257.366Z" stroke="#383838" stroke-opacity="0.5" stroke-width="0.3" stroke-linejoin="round"/>
<path fill-rule="evenodd" clip-rule="evenodd" d="M52.7349 308.124L87.2044 302.505C90.8233 301.915 93.3113 300.986 94.6683 299.719C96.0254 298.452 96.7039 296.041 96.7039 292.485C96.7039 288.929 96.0254 286.739 94.6683 285.914C94.234 285.65 93.684 285.459 93.0181 285.34L69.7818 281.552C70.4477 281.671 70.9977 281.862 71.4319 282.126C72.789 282.951 73.4676 285.141 73.4676 288.697C73.4676 292.253 72.789 294.664 71.4319 295.931C70.075 297.198 67.587 298.127 63.9681 298.717L29.4985 304.336L52.7349 308.124Z" fill="black"/>
<path fill-rule="evenodd" clip-rule="evenodd" d="M52.7349 308.124L87.2044 302.505C90.8233 301.915 93.3113 300.986 94.6683 299.719C96.0254 298.452 96.7039 296.041 96.7039 292.485C96.7039 288.929 96.0254 286.739 94.6683 285.914C94.234 285.65 93.684 285.459 93.0181 285.34L69.7818 281.552C70.4477 281.671 70.9977 281.862 71.4319 282.126C72.789 282.951 73.4676 285.141 73.4676 288.697C73.4676 292.253 72.789 294.664 71.4319 295.931C70.075 297.198 67.587 298.127 63.9681 298.717L29.4985 304.336L52.7349 308.124Z" fill="url(#paint11_linear_18_3018)"/>
<path fill-rule="evenodd" clip-rule="evenodd" d="M52.7349 308.124L87.2044 302.505C90.8233 301.915 93.3113 300.986 94.6683 299.719C96.0254 298.452 96.7039 296.041 96.7039 292.485C96.7039 288.929 96.0254 286.739 94.6683 285.914C94.234 285.65 93.684 285.459 93.0181 285.34L69.7818 281.552C70.4477 281.671 70.9977 281.862 71.4319 282.126C72.789 282.951 73.4676 285.141 73.4676 288.697C73.4676 292.253 72.789 294.664 71.4319 295.931C70.075 297.198 67.587 298.127 63.9681 298.717L29.4985 304.336L52.7349 308.124Z" stroke="url(#paint12_linear_18_3018)" stroke-width="0.3" stroke-linejoin="round"/>
<path fill-rule="evenodd" clip-rule="evenodd" d="M52.7349 308.124L87.2044 302.505C90.8233 301.915 93.3113 300.986 94.6683 299.719C96.0254 298.452 96.7039 296.041 96.7039 292.485C96.7039 288.929 96.0254 286.739 94.6683 285.914C94.234 285.65 93.684 285.459 93.0181 285.34L69.7818 281.552C70.4477 281.671 70.9977 281.862 71.4319 282.126C72.789 282.951 73.4676 285.141 73.4676 288.697C73.4676 292.253 72.789 294.664 71.4319 295.931C70.075 297.198 67.587 298.127 63.9681 298.717L29.4985 304.336L52.7349 308.124Z" stroke="#383838" stroke-opacity="0.5" stroke-width="0.3" stroke-linejoin="round"/>
<path fill-rule="evenodd" clip-rule="evenodd" d="M93.0181 285.34C91.6032 285.087 89.6652 285.161 87.2044 285.562L52.7349 291.182V308.124L29.4985 304.336V287.394L63.9681 281.774C66.4289 281.373 68.3668 281.299 69.7818 281.552L93.0181 285.34Z" fill="black"/>
<path fill-rule="evenodd" clip-rule="evenodd" d="M93.0181 285.34C91.6032 285.087 89.6652 285.161 87.2044 285.562L52.7349 291.182V308.124L29.4985 304.336V287.394L63.9681 281.774C66.4289 281.373 68.3668 281.299 69.7818 281.552L93.0181 285.34Z" fill="url(#paint13_linear_18_3018)"/>
<path fill-rule="evenodd" clip-rule="evenodd" d="M93.0181 285.34C91.6032 285.087 89.6652 285.161 87.2044 285.562L52.7349 291.182V308.124L29.4985 304.336V287.394L63.9681 281.774C66.4289 281.373 68.3668 281.299 69.7818 281.552L93.0181 285.34Z" stroke="url(#paint14_linear_18_3018)" stroke-width="0.3" stroke-linejoin="round"/>
<path fill-rule="evenodd" clip-rule="evenodd" d="M93.0181 285.34C91.6032 285.087 89.6652 285.161 87.2044 285.562L52.7349 291.182V308.124L29.4985 304.336V287.394L63.9681 281.774C66.4289 281.373 68.3668 281.299 69.7818 281.552L93.0181 285.34Z" stroke="#383838" stroke-opacity="0.5" stroke-width="0.3" stroke-linejoin="round"/>
<path fill-rule="evenodd" clip-rule="evenodd" d="M52.7349 347.5L89.9186 341.438C93.5374 340.848 96.0254 339.92 97.3825 338.653C98.7395 337.386 99.418 334.974 99.418 331.418C99.418 327.862 98.7395 325.724 97.3825 325.004C96.9771 324.736 96.4467 324.541 95.7913 324.42L72.555 320.632C73.2104 320.753 73.7408 320.948 74.1461 321.216C75.5032 321.936 76.1817 324.074 76.1817 327.63C76.1817 331.186 75.5032 333.597 74.1461 334.865C72.789 336.132 70.3011 337.06 66.6823 337.65L29.4985 343.712L52.7349 347.5Z" fill="black"/>
<path fill-rule="evenodd" clip-rule="evenodd" d="M52.7349 347.5L89.9186 341.438C93.5374 340.848 96.0254 339.92 97.3825 338.653C98.7395 337.386 99.418 334.974 99.418 331.418C99.418 327.862 98.7395 325.724 97.3825 325.004C96.9771 324.736 96.4467 324.541 95.7913 324.42L72.555 320.632C73.2104 320.753 73.7408 320.948 74.1461 321.216C75.5032 321.936 76.1817 324.074 76.1817 327.63C76.1817 331.186 75.5032 333.597 74.1461 334.865C72.789 336.132 70.3011 337.06 66.6823 337.65L29.4985 343.712L52.7349 347.5Z" fill="url(#paint15_linear_18_3018)"/>
<path fill-rule="evenodd" clip-rule="evenodd" d="M52.7349 347.5L89.9186 341.438C93.5374 340.848 96.0254 339.92 97.3825 338.653C98.7395 337.386 99.418 334.974 99.418 331.418C99.418 327.862 98.7395 325.724 97.3825 325.004C96.9771 324.736 96.4467 324.541 95.7913 324.42L72.555 320.632C73.2104 320.753 73.7408 320.948 74.1461 321.216C75.5032 321.936 76.1817 324.074 76.1817 327.63C76.1817 331.186 75.5032 333.597 74.1461 334.865C72.789 336.132 70.3011 337.06 66.6823 337.65L29.4985 343.712L52.7349 347.5Z" stroke="url(#paint16_linear_18_3018)" stroke-width="0.3" stroke-linejoin="round"/>
<path fill-rule="evenodd" clip-rule="evenodd" d="M52.7349 347.5L89.9186 341.438C93.5374 340.848 96.0254 339.92 97.3825 338.653C98.7395 337.386 99.418 334.974 99.418 331.418C99.418 327.862 98.7395 325.724 97.3825 325.004C96.9771 324.736 96.4467 324.541 95.7913 324.42L72.555 320.632C73.2104 320.753 73.7408 320.948 74.1461 321.216C75.5032 321.936 76.1817 324.074 76.1817 327.63C76.1817 331.186 75.5032 333.597 74.1461 334.865C72.789 336.132 70.3011 337.06 66.6823 337.65L29.4985 343.712L52.7349 347.5Z" stroke="#383838" stroke-opacity="0.5" stroke-width="0.3" stroke-linejoin="round"/>
<path fill-rule="evenodd" clip-rule="evenodd" d="M95.7913 324.42C94.3985 324.164 92.4409 324.241 89.9186 324.652L52.7349 330.714V347.5L29.4985 343.712V326.926L66.6823 320.864C69.2046 320.453 71.1622 320.376 72.555 320.632L95.7913 324.42Z" fill="black"/>
<path fill-rule="evenodd" clip-rule="evenodd" d="M95.7913 324.42C94.3985 324.164 92.4409 324.241 89.9186 324.652L52.7349 330.714V347.5L29.4985 343.712V326.926L66.6823 320.864C69.2046 320.453 71.1622 320.376 72.555 320.632L95.7913 324.42Z" fill="url(#paint17_linear_18_3018)"/>
<path fill-rule="evenodd" clip-rule="evenodd" d="M95.7913 324.42C94.3985 324.164 92.4409 324.241 89.9186 324.652L52.7349 330.714V347.5L29.4985 343.712V326.926L66.6823 320.864C69.2046 320.453 71.1622 320.376 72.555 320.632L95.7913 324.42Z" stroke="url(#paint18_linear_18_3018)" stroke-width="0.3" stroke-linejoin="round"/>
<path fill-rule="evenodd" clip-rule="evenodd" d="M95.7913 324.42C94.3985 324.164 92.4409 324.241 89.9186 324.652L52.7349 330.714V347.5L29.4985 343.712V326.926L66.6823 320.864C69.2046 320.453 71.1622 320.376 72.555 320.632L95.7913 324.42Z" stroke="#383838" stroke-opacity="0.5" stroke-width="0.3" stroke-linejoin="round"/>
<path fill-rule="evenodd" clip-rule="evenodd" d="M329.886 295.257L328.936 219.484L357.434 214.838L334.198 211.05L305.7 215.696L306.65 291.469L329.886 295.257Z" fill="black"/>
<path fill-rule="evenodd" clip-rule="evenodd" d="M329.886 295.257L328.936 219.484L357.434 214.838L334.198 211.05L305.7 215.696L306.65 291.469L329.886 295.257Z" fill="url(#paint19_linear_18_3018)"/>
<path fill-rule="evenodd" clip-rule="evenodd" d="M329.886 295.257L328.936 219.484L357.434 214.838L334.198 211.05L305.7 215.696L306.65 291.469L329.886 295.257Z" stroke="url(#paint20_linear_18_3018)" stroke-width="0.3" stroke-linejoin="round"/>
<path fill-rule="evenodd" clip-rule="evenodd" d="M329.886 295.257L328.936 219.484L357.434 214.838L334.198 211.05L305.7 215.696L306.65 291.469L329.886 295.257Z" stroke="#383838" stroke-opacity="0.5" stroke-width="0.3" stroke-linejoin="round"/>
<path fill-rule="evenodd" clip-rule="evenodd" d="M357.434 214.838V324.651L317.129 331.222L293.893 327.434L334.198 320.863V211.05L357.434 214.838Z" fill="black"/>
<path fill-rule="evenodd" clip-rule="evenodd" d="M357.434 214.838V324.651L317.129 331.222L293.893 327.434L334.198 320.863V211.05L357.434 214.838Z" fill="url(#paint21_linear_18_3018)"/>
<path fill-rule="evenodd" clip-rule="evenodd" d="M357.434 214.838V324.651L317.129 331.222L293.893 327.434L334.198 320.863V211.05L357.434 214.838Z" stroke="url(#paint22_linear_18_3018)" stroke-width="0.3" stroke-linejoin="round"/>
<path fill-rule="evenodd" clip-rule="evenodd" d="M357.434 214.838V324.651L317.129 331.222L293.893 327.434L334.198 320.863V211.05L357.434 214.838Z" stroke="#383838" stroke-opacity="0.5" stroke-width="0.3" stroke-linejoin="round"/>
<path fill-rule="evenodd" clip-rule="evenodd" d="M317.129 331.222L276.417 261.931L253.181 258.143L293.893 327.434L317.129 331.222Z" fill="black"/>
<path fill-rule="evenodd" clip-rule="evenodd" d="M317.129 331.222L276.417 261.931L253.181 258.143L293.893 327.434L317.129 331.222Z" fill="url(#paint23_linear_18_3018)"/>
<path fill-rule="evenodd" clip-rule="evenodd" d="M317.129 331.222L276.417 261.931L253.181 258.143L293.893 327.434L317.129 331.222Z" stroke="url(#paint24_linear_18_3018)" stroke-width="0.3" stroke-linejoin="round"/>
<path fill-rule="evenodd" clip-rule="evenodd" d="M317.129 331.222L276.417 261.931L253.181 258.143L293.893 327.434L317.129 331.222Z" stroke="#383838" stroke-opacity="0.5" stroke-width="0.3" stroke-linejoin="round"/>
<path fill-rule="evenodd" clip-rule="evenodd" d="M276.418 261.931L277.368 337.705L248.869 342.351L225.633 338.562L254.131 333.916L253.181 258.143L276.418 261.931Z" fill="black"/>
<path fill-rule="evenodd" clip-rule="evenodd" d="M276.418 261.931L277.368 337.705L248.869 342.351L225.633 338.562L254.131 333.916L253.181 258.143L276.418 261.931Z" fill="url(#paint25_linear_18_3018)"/>
<path fill-rule="evenodd" clip-rule="evenodd" d="M276.418 261.931L277.368 337.705L248.869 342.351L225.633 338.562L254.131 333.916L253.181 258.143L276.418 261.931Z" stroke="url(#paint26_linear_18_3018)" stroke-width="0.3" stroke-linejoin="round"/>
<path fill-rule="evenodd" clip-rule="evenodd" d="M276.418 261.931L277.368 337.705L248.869 342.351L225.633 338.562L254.131 333.916L253.181 258.143L276.418 261.931Z" stroke="#383838" stroke-opacity="0.5" stroke-width="0.3" stroke-linejoin="round"/>
<path fill-rule="evenodd" clip-rule="evenodd" d="M248.869 342.351V232.537L289.174 225.967L265.938 222.178L225.633 228.749V338.562L248.869 342.351Z" fill="black"/>
<path fill-rule="evenodd" clip-rule="evenodd" d="M248.869 342.351V232.537L289.174 225.967L265.938 222.178L225.633 228.749V338.562L248.869 342.351Z" fill="url(#paint27_linear_18_3018)"/>
<path fill-rule="evenodd" clip-rule="evenodd" d="M248.869 342.351V232.537L289.174 225.967L265.938 222.178L225.633 228.749V338.562L248.869 342.351Z" stroke="url(#paint28_linear_18_3018)" stroke-width="0.3" stroke-linejoin="round"/>
<path fill-rule="evenodd" clip-rule="evenodd" d="M248.869 342.351V232.537L289.174 225.967L265.938 222.178L225.633 228.749V338.562L248.869 342.351Z" stroke="#383838" stroke-opacity="0.5" stroke-width="0.3" stroke-linejoin="round"/>
<path fill-rule="evenodd" clip-rule="evenodd" d="M289.174 225.967L329.886 295.257L306.65 291.469L265.938 222.178L289.174 225.967Z" fill="black"/>
<path fill-rule="evenodd" clip-rule="evenodd" d="M289.174 225.967L329.886 295.257L306.65 291.469L265.938 222.178L289.174 225.967Z" fill="url(#paint29_linear_18_3018)"/>
<path fill-rule="evenodd" clip-rule="evenodd" d="M289.174 225.967L329.886 295.257L306.65 291.469L265.938 222.178L289.174 225.967Z" stroke="url(#paint30_linear_18_3018)" stroke-width="0.3" stroke-linejoin="round"/>
<path fill-rule="evenodd" clip-rule="evenodd" d="M289.174 225.967L329.886 295.257L306.65 291.469L265.938 222.178L289.174 225.967Z" stroke="#383838" stroke-opacity="0.5" stroke-width="0.3" stroke-linejoin="round"/>
<path fill-rule="evenodd" clip-rule="evenodd" d="M480.026 244.425V304.665L459.67 307.984L436.433 304.196L456.789 300.877V240.637L480.026 244.425Z" fill="black"/>
<path fill-rule="evenodd" clip-rule="evenodd" d="M480.026 244.425V304.665L459.67 307.984L436.433 304.196L456.789 300.877V240.637L480.026 244.425Z" fill="url(#paint31_linear_18_3018)"/>
<path fill-rule="evenodd" clip-rule="evenodd" d="M480.026 244.425V304.665L459.67 307.984L436.433 304.196L456.789 300.877V240.637L480.026 244.425Z" stroke="url(#paint32_linear_18_3018)" stroke-width="0.3" stroke-linejoin="round"/>
<path fill-rule="evenodd" clip-rule="evenodd" d="M480.026 244.425V304.665L459.67 307.984L436.433 304.196L456.789 300.877V240.637L480.026 244.425Z" stroke="#383838" stroke-opacity="0.5" stroke-width="0.3" stroke-linejoin="round"/>
<path fill-rule="evenodd" clip-rule="evenodd" d="M459.67 307.984L457.362 288.437L434.126 284.649L436.433 304.196L459.67 307.984Z" fill="black"/>
<path fill-rule="evenodd" clip-rule="evenodd" d="M459.67 307.984L457.362 288.437L434.126 284.649L436.433 304.196L459.67 307.984Z" fill="url(#paint33_linear_18_3018)"/>
<path fill-rule="evenodd" clip-rule="evenodd" d="M459.67 307.984L457.362 288.437L434.126 284.649L436.433 304.196L459.67 307.984Z" stroke="url(#paint34_linear_18_3018)" stroke-width="0.3" stroke-linejoin="round"/>
<path fill-rule="evenodd" clip-rule="evenodd" d="M459.67 307.984L457.362 288.437L434.126 284.649L436.433 304.196L459.67 307.984Z" stroke="#383838" stroke-opacity="0.5" stroke-width="0.3" stroke-linejoin="round"/>
<path fill-rule="evenodd" clip-rule="evenodd" d="M457.362 288.437C454.739 296.918 450.351 303.385 444.199 307.839C438.047 312.189 429.407 315.271 418.279 317.085L411.765 318.147C403.558 319.485 396.455 319.679 390.457 318.729L367.22 314.941C373.219 315.891 380.322 315.697 388.529 314.359L395.042 313.297C406.171 311.483 414.81 308.401 420.963 304.051C427.115 299.597 431.503 293.129 434.126 284.649L457.362 288.437Z" fill="black"/>
<path fill-rule="evenodd" clip-rule="evenodd" d="M457.362 288.437C454.739 296.918 450.351 303.385 444.199 307.839C438.047 312.189 429.407 315.271 418.279 317.085L411.765 318.147C403.558 319.485 396.455 319.679 390.457 318.729L367.22 314.941C373.219 315.891 380.322 315.697 388.529 314.359L395.042 313.297C406.171 311.483 414.81 308.401 420.963 304.051C427.115 299.597 431.503 293.129 434.126 284.649L457.362 288.437Z" fill="url(#paint35_linear_18_3018)"/>
<path fill-rule="evenodd" clip-rule="evenodd" d="M457.362 288.437C454.739 296.918 450.351 303.385 444.199 307.839C438.047 312.189 429.407 315.271 418.279 317.085L411.765 318.147C403.558 319.485 396.455 319.679 390.457 318.729L367.22 314.941C373.219 315.891 380.322 315.697 388.529 314.359L395.042 313.297C406.171 311.483 414.81 308.401 420.963 304.051C427.115 299.597 431.503 293.129 434.126 284.649L457.362 288.437Z" stroke="url(#paint36_linear_18_3018)" stroke-width="0.3" stroke-linejoin="round"/>
<path fill-rule="evenodd" clip-rule="evenodd" d="M457.362 288.437C454.739 296.918 450.351 303.385 444.199 307.839C438.047 312.189 429.407 315.271 418.279 317.085L411.765 318.147C403.558 319.485 396.455 319.679 390.457 318.729L367.22 314.941C373.219 315.891 380.322 315.697 388.529 314.359L395.042 313.297C406.171 311.483 414.81 308.401 420.963 304.051C427.115 299.597 431.503 293.129 434.126 284.649L457.362 288.437Z" stroke="#383838" stroke-opacity="0.5" stroke-width="0.3" stroke-linejoin="round"/>
<path fill-rule="evenodd" clip-rule="evenodd" d="M390.457 318.729C383.959 317.7 378.757 315.329 374.853 311.615C367.344 304.368 363.589 290.076 363.589 268.741C363.589 247.406 367.344 231.943 374.853 222.352C382.362 212.657 394.666 206.415 411.765 203.627L431.85 200.353C440.318 198.973 447.648 198.697 453.841 199.525L430.605 195.737C424.412 194.908 417.082 195.184 408.613 196.565L388.529 199.839C371.43 202.627 359.125 208.869 351.616 218.564C344.107 228.155 340.353 243.618 340.353 264.953C340.353 286.288 344.107 300.579 351.616 307.827C355.521 311.541 360.722 313.912 367.22 314.941L390.457 318.729Z" fill="black"/>
<path fill-rule="evenodd" clip-rule="evenodd" d="M390.457 318.729C383.959 317.7 378.757 315.329 374.853 311.615C367.344 304.368 363.589 290.076 363.589 268.741C363.589 247.406 367.344 231.943 374.853 222.352C382.362 212.657 394.666 206.415 411.765 203.627L431.85 200.353C440.318 198.973 447.648 198.697 453.841 199.525L430.605 195.737C424.412 194.908 417.082 195.184 408.613 196.565L388.529 199.839C371.43 202.627 359.125 208.869 351.616 218.564C344.107 228.155 340.353 243.618 340.353 264.953C340.353 286.288 344.107 300.579 351.616 307.827C355.521 311.541 360.722 313.912 367.22 314.941L390.457 318.729Z" fill="url(#paint37_linear_18_3018)"/>
<path fill-rule="evenodd" clip-rule="evenodd" d="M390.457 318.729C383.959 317.7 378.757 315.329 374.853 311.615C367.344 304.368 363.589 290.076 363.589 268.741C363.589 247.406 367.344 231.943 374.853 222.352C382.362 212.657 394.666 206.415 411.765 203.627L431.85 200.353C440.318 198.973 447.648 198.697 453.841 199.525L430.605 195.737C424.412 194.908 417.082 195.184 408.613 196.565L388.529 199.839C371.43 202.627 359.125 208.869 351.616 218.564C344.107 228.155 340.353 243.618 340.353 264.953C340.353 286.288 344.107 300.579 351.616 307.827C355.521 311.541 360.722 313.912 367.22 314.941L390.457 318.729Z" stroke="url(#paint38_linear_18_3018)" stroke-width="0.3" stroke-linejoin="round"/>
<path fill-rule="evenodd" clip-rule="evenodd" d="M390.457 318.729C383.959 317.7 378.757 315.329 374.853 311.615C367.344 304.368 363.589 290.076 363.589 268.741C363.589 247.406 367.344 231.943 374.853 222.352C382.362 212.657 394.666 206.415 411.765 203.627L431.85 200.353C440.318 198.973 447.648 198.697 453.841 199.525L430.605 195.737C424.412 194.908 417.082 195.184 408.613 196.565L388.529 199.839C371.43 202.627 359.125 208.869 351.616 218.564C344.107 228.155 340.353 243.618 340.353 264.953C340.353 286.288 344.107 300.579 351.616 307.827C355.521 311.541 360.722 313.912 367.22 314.941L390.457 318.729Z" stroke="#383838" stroke-opacity="0.5" stroke-width="0.3" stroke-linejoin="round"/>
<path fill-rule="evenodd" clip-rule="evenodd" d="M453.841 199.525C459.558 200.29 464.305 201.996 468.083 204.643C475.955 210.158 479.89 220.288 479.89 235.035L452.341 239.526L429.105 235.738L456.653 231.246C456.653 216.5 452.718 206.37 444.847 200.855C441.069 198.208 436.321 196.502 430.605 195.737L453.841 199.525Z" fill="black"/>
<path fill-rule="evenodd" clip-rule="evenodd" d="M453.841 199.525C459.558 200.29 464.305 201.996 468.083 204.643C475.955 210.158 479.89 220.288 479.89 235.035L452.341 239.526L429.105 235.738L456.653 231.246C456.653 216.5 452.718 206.37 444.847 200.855C441.069 198.208 436.321 196.502 430.605 195.737L453.841 199.525Z" fill="url(#paint39_linear_18_3018)"/>
<path fill-rule="evenodd" clip-rule="evenodd" d="M453.841 199.525C459.558 200.29 464.305 201.996 468.083 204.643C475.955 210.158 479.89 220.288 479.89 235.035L452.341 239.526L429.105 235.738L456.653 231.246C456.653 216.5 452.718 206.37 444.847 200.855C441.069 198.208 436.321 196.502 430.605 195.737L453.841 199.525Z" stroke="url(#paint40_linear_18_3018)" stroke-width="0.3" stroke-linejoin="round"/>
<path fill-rule="evenodd" clip-rule="evenodd" d="M453.841 199.525C459.558 200.29 464.305 201.996 468.083 204.643C475.955 210.158 479.89 220.288 479.89 235.035L452.341 239.526L429.105 235.738L456.653 231.246C456.653 216.5 452.718 206.37 444.847 200.855C441.069 198.208 436.321 196.502 430.605 195.737L453.841 199.525Z" stroke="#383838" stroke-opacity="0.5" stroke-width="0.3" stroke-linejoin="round"/>
<path fill-rule="evenodd" clip-rule="evenodd" d="M452.341 239.526C452.522 235.418 451.029 232.419 447.863 230.53C446.85 229.925 445.614 229.48 444.156 229.194L420.92 225.406C422.378 225.692 423.613 226.137 424.627 226.741C427.793 228.631 429.285 231.629 429.105 235.738L452.341 239.526Z" fill="black"/>
<path fill-rule="evenodd" clip-rule="evenodd" d="M452.341 239.526C452.522 235.418 451.029 232.419 447.863 230.53C446.85 229.925 445.614 229.48 444.156 229.194L420.92 225.406C422.378 225.692 423.613 226.137 424.627 226.741C427.793 228.631 429.285 231.629 429.105 235.738L452.341 239.526Z" fill="url(#paint41_linear_18_3018)"/>
<path fill-rule="evenodd" clip-rule="evenodd" d="M452.341 239.526C452.522 235.418 451.029 232.419 447.863 230.53C446.85 229.925 445.614 229.48 444.156 229.194L420.92 225.406C422.378 225.692 423.613 226.137 424.627 226.741C427.793 228.631 429.285 231.629 429.105 235.738L452.341 239.526Z" stroke="url(#paint42_linear_18_3018)" stroke-width="0.3" stroke-linejoin="round"/>
<path fill-rule="evenodd" clip-rule="evenodd" d="M452.341 239.526C452.522 235.418 451.029 232.419 447.863 230.53C446.85 229.925 445.614 229.48 444.156 229.194L420.92 225.406C422.378 225.692 423.613 226.137 424.627 226.741C427.793 228.631 429.285 231.629 429.105 235.738L452.341 239.526Z" stroke="#383838" stroke-opacity="0.5" stroke-width="0.3" stroke-linejoin="round"/>
<path fill-rule="evenodd" clip-rule="evenodd" d="M444.156 229.194C441.058 228.587 436.956 228.7 431.85 229.532L411.766 232.806C403.351 234.178 397.787 237.02 395.073 241.332C392.45 245.629 391.138 253.269 391.138 264.25C391.138 275.232 392.45 282.443 395.073 285.885C396.484 287.667 398.666 288.8 401.619 289.285L378.383 285.497C375.43 285.012 373.248 283.879 371.837 282.097C369.214 278.655 367.902 271.443 367.902 260.462C367.902 249.481 369.214 241.841 371.837 237.544C374.551 233.232 380.115 230.39 388.529 229.018L408.613 225.744C413.719 224.912 417.822 224.799 420.92 225.406L444.156 229.194Z" fill="black"/>
<path fill-rule="evenodd" clip-rule="evenodd" d="M444.156 229.194C441.058 228.587 436.956 228.7 431.85 229.532L411.766 232.806C403.351 234.178 397.787 237.02 395.073 241.332C392.45 245.629 391.138 253.269 391.138 264.25C391.138 275.232 392.45 282.443 395.073 285.885C396.484 287.667 398.666 288.8 401.619 289.285L378.383 285.497C375.43 285.012 373.248 283.879 371.837 282.097C369.214 278.655 367.902 271.443 367.902 260.462C367.902 249.481 369.214 241.841 371.837 237.544C374.551 233.232 380.115 230.39 388.529 229.018L408.613 225.744C413.719 224.912 417.822 224.799 420.92 225.406L444.156 229.194Z" fill="url(#paint43_linear_18_3018)"/>
<path fill-rule="evenodd" clip-rule="evenodd" d="M444.156 229.194C441.058 228.587 436.956 228.7 431.85 229.532L411.766 232.806C403.351 234.178 397.787 237.02 395.073 241.332C392.45 245.629 391.138 253.269 391.138 264.25C391.138 275.232 392.45 282.443 395.073 285.885C396.484 287.667 398.666 288.8 401.619 289.285L378.383 285.497C375.43 285.012 373.248 283.879 371.837 282.097C369.214 278.655 367.902 271.443 367.902 260.462C367.902 249.481 369.214 241.841 371.837 237.544C374.551 233.232 380.115 230.39 388.529 229.018L408.613 225.744C413.719 224.912 417.822 224.799 420.92 225.406L444.156 229.194Z" stroke="url(#paint44_linear_18_3018)" stroke-width="0.3" stroke-linejoin="round"/>
<path fill-rule="evenodd" clip-rule="evenodd" d="M444.156 229.194C441.058 228.587 436.956 228.7 431.85 229.532L411.766 232.806C403.351 234.178 397.787 237.02 395.073 241.332C392.45 245.629 391.138 253.269 391.138 264.25C391.138 275.232 392.45 282.443 395.073 285.885C396.484 287.667 398.666 288.8 401.619 289.285L378.383 285.497C375.43 285.012 373.248 283.879 371.837 282.097C369.214 278.655 367.902 271.443 367.902 260.462C367.902 249.481 369.214 241.841 371.837 237.544C374.551 233.232 380.115 230.39 388.529 229.018L408.613 225.744C413.719 224.912 417.822 224.799 420.92 225.406L444.156 229.194Z" stroke="#383838" stroke-opacity="0.5" stroke-width="0.3" stroke-linejoin="round"/>
<path fill-rule="evenodd" clip-rule="evenodd" d="M401.619 289.285C404.344 289.732 407.727 289.627 411.765 288.968L431.85 285.694C437.64 284.75 442.028 283.145 445.013 280.881C448.089 278.601 450.17 275.334 451.256 271.078L428.019 267.29C426.933 271.546 424.853 274.813 421.777 277.093C418.792 279.357 414.404 280.962 408.613 281.906L388.529 285.18C384.49 285.838 381.108 285.944 378.383 285.497L401.619 289.285Z" fill="black"/>
<path fill-rule="evenodd" clip-rule="evenodd" d="M401.619 289.285C404.344 289.732 407.727 289.627 411.765 288.968L431.85 285.694C437.64 284.75 442.028 283.145 445.013 280.881C448.089 278.601 450.17 275.334 451.256 271.078L428.019 267.29C426.933 271.546 424.853 274.813 421.777 277.093C418.792 279.357 414.404 280.962 408.613 281.906L388.529 285.18C384.49 285.838 381.108 285.944 378.383 285.497L401.619 289.285Z" fill="url(#paint45_linear_18_3018)"/>
<path fill-rule="evenodd" clip-rule="evenodd" d="M401.619 289.285C404.344 289.732 407.727 289.627 411.765 288.968L431.85 285.694C437.64 284.75 442.028 283.145 445.013 280.881C448.089 278.601 450.17 275.334 451.256 271.078L428.019 267.29C426.933 271.546 424.853 274.813 421.777 277.093C418.792 279.357 414.404 280.962 408.613 281.906L388.529 285.18C384.49 285.838 381.108 285.944 378.383 285.497L401.619 289.285Z" stroke="url(#paint46_linear_18_3018)" stroke-width="0.3" stroke-linejoin="round"/>
<path fill-rule="evenodd" clip-rule="evenodd" d="M401.619 289.285C404.344 289.732 407.727 289.627 411.765 288.968L431.85 285.694C437.64 284.75 442.028 283.145 445.013 280.881C448.089 278.601 450.17 275.334 451.256 271.078L428.019 267.29C426.933 271.546 424.853 274.813 421.777 277.093C418.792 279.357 414.404 280.962 408.613 281.906L388.529 285.18C384.49 285.838 381.108 285.944 378.383 285.497L401.619 289.285Z" stroke="#383838" stroke-opacity="0.5" stroke-width="0.3" stroke-linejoin="round"/>
<path fill-rule="evenodd" clip-rule="evenodd" d="M451.255 271.078L418.55 276.41L395.314 272.622L428.019 267.29L451.255 271.078Z" fill="black"/>
<path fill-rule="evenodd" clip-rule="evenodd" d="M451.255 271.078L418.55 276.41L395.314 272.622L428.019 267.29L451.255 271.078Z" fill="url(#paint47_linear_18_3018)"/>
<path fill-rule="evenodd" clip-rule="evenodd" d="M451.255 271.078L418.55 276.41L395.314 272.622L428.019 267.29L451.255 271.078Z" stroke="url(#paint48_linear_18_3018)" stroke-width="0.3" stroke-linejoin="round"/>
<path fill-rule="evenodd" clip-rule="evenodd" d="M451.255 271.078L418.55 276.41L395.314 272.622L428.019 267.29L451.255 271.078Z" stroke="#383838" stroke-opacity="0.5" stroke-width="0.3" stroke-linejoin="round"/>
<path fill-rule="evenodd" clip-rule="evenodd" d="M418.55 276.41V254.447L480.026 244.425L456.789 240.637L395.314 250.659V272.622L418.55 276.41Z" fill="black"/>
<path fill-rule="evenodd" clip-rule="evenodd" d="M418.55 276.41V254.447L480.026 244.425L456.789 240.637L395.314 250.659V272.622L418.55 276.41Z" fill="url(#paint49_linear_18_3018)"/>
<path fill-rule="evenodd" clip-rule="evenodd" d="M418.55 276.41V254.447L480.026 244.425L456.789 240.637L395.314 250.659V272.622L418.55 276.41Z" stroke="url(#paint50_linear_18_3018)" stroke-width="0.3" stroke-linejoin="round"/>
<path fill-rule="evenodd" clip-rule="evenodd" d="M418.55 276.41V254.447L480.026 244.425L456.789 240.637L395.314 250.659V272.622L418.55 276.41Z" stroke="#383838" stroke-opacity="0.5" stroke-width="0.3" stroke-linejoin="round"/>
<path fill-rule="evenodd" clip-rule="evenodd" d="M217.69 347.434L190.413 267.638L167.176 263.85L194.454 343.645L217.69 347.434Z" fill="black"/>
<path fill-rule="evenodd" clip-rule="evenodd" d="M217.69 347.434L190.413 267.638L167.176 263.85L194.454 343.645L217.69 347.434Z" fill="url(#paint51_linear_18_3018)"/>
<path fill-rule="evenodd" clip-rule="evenodd" d="M217.69 347.434L190.413 267.638L167.176 263.85L194.454 343.645L217.69 347.434Z" stroke="url(#paint52_linear_18_3018)" stroke-width="0.3" stroke-linejoin="round"/>
<path fill-rule="evenodd" clip-rule="evenodd" d="M217.69 347.434L190.413 267.638L167.176 263.85L194.454 343.645L217.69 347.434Z" stroke="#383838" stroke-opacity="0.5" stroke-width="0.3" stroke-linejoin="round"/>
<path fill-rule="evenodd" clip-rule="evenodd" d="M190.413 267.638L186.07 268.346L171.007 315.198L157.436 357.257L127.581 362.124L104.344 358.336L134.2 353.469L147.77 311.41L162.834 264.558L167.176 263.85L190.413 267.638Z" fill="black"/>
<path fill-rule="evenodd" clip-rule="evenodd" d="M190.413 267.638L186.07 268.346L171.007 315.198L157.436 357.257L127.581 362.124L104.344 358.336L134.2 353.469L147.77 311.41L162.834 264.558L167.176 263.85L190.413 267.638Z" fill="url(#paint53_linear_18_3018)"/>
<path fill-rule="evenodd" clip-rule="evenodd" d="M190.413 267.638L186.07 268.346L171.007 315.198L157.436 357.257L127.581 362.124L104.344 358.336L134.2 353.469L147.77 311.41L162.834 264.558L167.176 263.85L190.413 267.638Z" stroke="url(#paint54_linear_18_3018)" stroke-width="0.3" stroke-linejoin="round"/>
<path fill-rule="evenodd" clip-rule="evenodd" d="M190.413 267.638L186.07 268.346L171.007 315.198L157.436 357.257L127.581 362.124L104.344 358.336L134.2 353.469L147.77 311.41L162.834 264.558L167.176 263.85L190.413 267.638Z" stroke="#383838" stroke-opacity="0.5" stroke-width="0.3" stroke-linejoin="round"/>
<path fill-rule="evenodd" clip-rule="evenodd" d="M127.581 362.124L166.936 245.895L209.548 238.948L186.311 235.16L143.7 242.107L104.344 358.336L127.581 362.124Z" fill="black"/>
<path fill-rule="evenodd" clip-rule="evenodd" d="M127.581 362.124L166.936 245.895L209.548 238.948L186.311 235.16L143.7 242.107L104.344 358.336L127.581 362.124Z" fill="url(#paint55_linear_18_3018)"/>
<path fill-rule="evenodd" clip-rule="evenodd" d="M127.581 362.124L166.936 245.895L209.548 238.948L186.311 235.16L143.7 242.107L104.344 358.336L127.581 362.124Z" stroke="url(#paint56_linear_18_3018)" stroke-width="0.3" stroke-linejoin="round"/>
<path fill-rule="evenodd" clip-rule="evenodd" d="M127.581 362.124L166.936 245.895L209.548 238.948L186.311 235.16L143.7 242.107L104.344 358.336L127.581 362.124Z" stroke="#383838" stroke-opacity="0.5" stroke-width="0.3" stroke-linejoin="round"/>
<path fill-rule="evenodd" clip-rule="evenodd" d="M209.548 238.948L247.545 342.566L217.69 347.434L194.454 343.645L224.309 338.778L186.312 235.16L209.548 238.948Z" fill="black"/>
<path fill-rule="evenodd" clip-rule="evenodd" d="M209.548 238.948L247.545 342.566L217.69 347.434L194.454 343.645L224.309 338.778L186.312 235.16L209.548 238.948Z" fill="url(#paint57_linear_18_3018)"/>
<path fill-rule="evenodd" clip-rule="evenodd" d="M209.548 238.948L247.545 342.566L217.69 347.434L194.454 343.645L224.309 338.778L186.312 235.16L209.548 238.948Z" stroke="url(#paint58_linear_18_3018)" stroke-width="0.3" stroke-linejoin="round"/>
<path fill-rule="evenodd" clip-rule="evenodd" d="M209.548 238.948L247.545 342.566L217.69 347.434L194.454 343.645L224.309 338.778L186.312 235.16L209.548 238.948Z" stroke="#383838" stroke-opacity="0.5" stroke-width="0.3" stroke-linejoin="round"/>
<path d="M199.402 316.543C193.165 319.665 189.395 325.21 187.784 333.628C186.174 325.735 182.403 321.42 176.166 320.331C182.403 317.208 186.174 311.664 187.784 303.245C189.395 311.138 193.165 315.454 199.402 316.543ZM115.974 308.796C124.207 311.951 128.323 318.653 128.323 328.902C128.323 340.72 125.745 349.612 120.588 355.577C115.522 361.528 107.334 365.425 96.0254 367.268L24.2363 378.972V269.159L93.3113 257.898C104.62 256.054 112.808 257.281 117.874 261.58C123.031 265.864 125.609 273.915 125.609 285.733C125.609 295.773 122.398 303.461 115.974 308.796ZM87.2044 285.562L52.7349 291.182V308.124L87.2044 302.505C90.8233 301.915 93.3113 300.986 94.6683 299.719C96.0254 298.452 96.704 296.041 96.704 292.485C96.704 288.929 96.0254 286.739 94.6683 285.914C93.3113 285.09 90.8233 284.972 87.2044 285.562ZM52.7349 347.5L89.9186 341.438C93.5374 340.848 96.0254 339.92 97.3825 338.653C98.7396 337.386 99.4181 334.974 99.4181 331.418C99.4181 327.862 98.7396 325.724 97.3825 325.004C96.1158 324.165 93.6279 324.048 89.9186 324.652L52.7349 330.714V347.5ZM329.886 295.257L328.936 219.484L357.434 214.838V324.651L317.129 331.222L276.417 261.931L277.367 337.705L248.869 342.351V232.537L289.174 225.966L329.886 295.257ZM418.55 254.447L480.026 244.425V304.665L459.67 307.984L457.362 288.437C454.739 296.918 450.351 303.385 444.199 307.839C438.047 312.189 429.407 315.271 418.279 317.085L411.765 318.147C394.666 320.935 382.362 318.757 374.853 311.615C367.344 304.368 363.589 290.076 363.589 268.741C363.589 247.406 367.344 231.943 374.853 222.352C382.362 212.657 394.666 206.415 411.765 203.627L431.85 200.353C448.135 197.698 460.212 199.128 468.083 204.643C475.955 210.158 479.89 220.288 479.89 235.035L452.341 239.526C452.522 235.418 451.029 232.419 447.863 230.53C444.697 228.64 439.358 228.308 431.85 229.532L411.765 232.806C403.351 234.178 397.787 237.02 395.073 241.332C392.45 245.629 391.138 253.269 391.138 264.25C391.138 275.231 392.45 282.443 395.073 285.885C397.787 289.312 403.351 290.34 411.765 288.968L431.85 285.694C437.64 284.75 442.028 283.145 445.013 280.881C448.089 278.601 450.17 275.334 451.255 271.078L418.55 276.41V254.447ZM247.545 342.566L217.69 347.434L190.413 267.638L186.07 268.346L171.007 315.198L157.436 357.257L127.581 362.124L166.936 245.895L209.548 238.948L247.545 342.566Z" fill="white"/>
<defs>
<linearGradient id="paint0_linear_18_3018" x1="252.131" y1="3.64252" x2="252.131" y2="288.315" gradientUnits="userSpaceOnUse">
<stop stop-color="#0079F8"/>
<stop offset="1" stop-color="#004792"/>
</linearGradient>
<linearGradient id="paint1_linear_18_3018" x1="170.357" y1="316.543" x2="170.357" y2="333.628" gradientUnits="userSpaceOnUse">
<stop offset="0.0147" stop-color="#0A0A0A"/>
<stop offset="1" stop-color="#0A0A0A"/>
</linearGradient>
<linearGradient id="paint2_linear_18_3018" x1="170.357" y1="316.543" x2="170.357" y2="333.628" gradientUnits="userSpaceOnUse">
<stop offset="0.0147" stop-color="#0A0A0A"/>
<stop offset="1" stop-color="#0E0E11"/>
</linearGradient>
<linearGradient id="paint3_linear_18_3018" x1="170.357" y1="299.457" x2="170.357" y2="320.331" gradientUnits="userSpaceOnUse">
<stop offset="0.0147" stop-color="#0A0A0A"/>
<stop offset="1" stop-color="#0A0A0A"/>
</linearGradient>
<linearGradient id="paint4_linear_18_3018" x1="170.357" y1="299.457" x2="170.357" y2="320.331" gradientUnits="userSpaceOnUse">
<stop offset="0.0147" stop-color="#0A0A0A"/>
<stop offset="1" stop-color="#0E0E11"/>
</linearGradient>
<linearGradient id="paint5_linear_18_3018" x1="181.975" y1="299.457" x2="181.975" y2="333.628" gradientUnits="userSpaceOnUse">
<stop offset="0.0147" stop-color="#0A0A0A"/>
<stop offset="1" stop-color="#0A0A0A"/>
</linearGradient>
<linearGradient id="paint6_linear_18_3018" x1="181.975" y1="299.457" x2="181.975" y2="333.628" gradientUnits="userSpaceOnUse">
<stop offset="0.0147" stop-color="#0A0A0A"/>
<stop offset="1" stop-color="#0E0E11"/>
</linearGradient>
<linearGradient id="paint7_linear_18_3018" x1="54.2193" y1="253.279" x2="54.2193" y2="378.972" gradientUnits="userSpaceOnUse">
<stop offset="0.0147" stop-color="#0A0A0A"/>
<stop offset="1" stop-color="#0A0A0A"/>
</linearGradient>
<linearGradient id="paint8_linear_18_3018" x1="54.2193" y1="253.279" x2="54.2193" y2="378.972" gradientUnits="userSpaceOnUse">
<stop offset="0.0147" stop-color="#0A0A0A"/>
<stop offset="1" stop-color="#0E0E11"/>
</linearGradient>
<linearGradient id="paint9_linear_18_3018" x1="64.6617" y1="253.577" x2="64.6617" y2="378.972" gradientUnits="userSpaceOnUse">
<stop offset="0.0147" stop-color="#0A0A0A"/>
<stop offset="1" stop-color="#0A0A0A"/>
</linearGradient>
<linearGradient id="paint10_linear_18_3018" x1="64.6617" y1="253.577" x2="64.6617" y2="378.972" gradientUnits="userSpaceOnUse">
<stop offset="0.0147" stop-color="#0A0A0A"/>
<stop offset="1" stop-color="#0E0E11"/>
</linearGradient>
<linearGradient id="paint11_linear_18_3018" x1="63.1012" y1="281.552" x2="63.1012" y2="308.124" gradientUnits="userSpaceOnUse">
<stop offset="0.0147" stop-color="#0A0A0A"/>
<stop offset="1" stop-color="#0A0A0A"/>
</linearGradient>
<linearGradient id="paint12_linear_18_3018" x1="63.1012" y1="281.552" x2="63.1012" y2="308.124" gradientUnits="userSpaceOnUse">
<stop offset="0.0147" stop-color="#0A0A0A"/>
<stop offset="1" stop-color="#0E0E11"/>
</linearGradient>
<linearGradient id="paint13_linear_18_3018" x1="61.2583" y1="281.405" x2="61.2583" y2="308.124" gradientUnits="userSpaceOnUse">
<stop offset="0.0147" stop-color="#0A0A0A"/>
<stop offset="1" stop-color="#0A0A0A"/>
</linearGradient>
<linearGradient id="paint14_linear_18_3018" x1="61.2583" y1="281.405" x2="61.2583" y2="308.124" gradientUnits="userSpaceOnUse">
<stop offset="0.0147" stop-color="#0A0A0A"/>
<stop offset="1" stop-color="#0E0E11"/>
</linearGradient>
<linearGradient id="paint15_linear_18_3018" x1="64.4583" y1="320.632" x2="64.4583" y2="347.5" gradientUnits="userSpaceOnUse">
<stop offset="0.0147" stop-color="#0A0A0A"/>
<stop offset="1" stop-color="#0A0A0A"/>
</linearGradient>
<linearGradient id="paint16_linear_18_3018" x1="64.4583" y1="320.632" x2="64.4583" y2="347.5" gradientUnits="userSpaceOnUse">
<stop offset="0.0147" stop-color="#0A0A0A"/>
<stop offset="1" stop-color="#0E0E11"/>
</linearGradient>
<linearGradient id="paint17_linear_18_3018" x1="62.6449" y1="320.484" x2="62.6449" y2="347.5" gradientUnits="userSpaceOnUse">
<stop offset="0.0147" stop-color="#0A0A0A"/>
<stop offset="1" stop-color="#0A0A0A"/>
</linearGradient>
<linearGradient id="paint18_linear_18_3018" x1="62.6449" y1="320.484" x2="62.6449" y2="347.5" gradientUnits="userSpaceOnUse">
<stop offset="0.0147" stop-color="#0A0A0A"/>
<stop offset="1" stop-color="#0E0E11"/>
</linearGradient>
<linearGradient id="paint19_linear_18_3018" x1="331.567" y1="211.05" x2="331.567" y2="295.257" gradientUnits="userSpaceOnUse">
<stop offset="0.0147" stop-color="#0A0A0A"/>
<stop offset="1" stop-color="#0A0A0A"/>
</linearGradient>
<linearGradient id="paint20_linear_18_3018" x1="331.567" y1="211.05" x2="331.567" y2="295.257" gradientUnits="userSpaceOnUse">
<stop offset="0.0147" stop-color="#0A0A0A"/>
<stop offset="1" stop-color="#0E0E11"/>
</linearGradient>
<linearGradient id="paint21_linear_18_3018" x1="325.664" y1="211.05" x2="325.664" y2="331.222" gradientUnits="userSpaceOnUse">
<stop offset="0.0147" stop-color="#0A0A0A"/>
<stop offset="1" stop-color="#0A0A0A"/>
</linearGradient>
<linearGradient id="paint22_linear_18_3018" x1="325.664" y1="211.05" x2="325.664" y2="331.222" gradientUnits="userSpaceOnUse">
<stop offset="0.0147" stop-color="#0A0A0A"/>
<stop offset="1" stop-color="#0E0E11"/>
</linearGradient>
<linearGradient id="paint23_linear_18_3018" x1="285.155" y1="258.143" x2="285.155" y2="331.222" gradientUnits="userSpaceOnUse">
<stop offset="0.0147" stop-color="#0A0A0A"/>
<stop offset="1" stop-color="#0A0A0A"/>
</linearGradient>
<linearGradient id="paint24_linear_18_3018" x1="285.155" y1="258.143" x2="285.155" y2="331.222" gradientUnits="userSpaceOnUse">
<stop offset="0.0147" stop-color="#0A0A0A"/>
<stop offset="1" stop-color="#0E0E11"/>
</linearGradient>
<linearGradient id="paint25_linear_18_3018" x1="251.5" y1="258.143" x2="251.5" y2="342.351" gradientUnits="userSpaceOnUse">
<stop offset="0.0147" stop-color="#0A0A0A"/>
<stop offset="1" stop-color="#0A0A0A"/>
</linearGradient>
<linearGradient id="paint26_linear_18_3018" x1="251.5" y1="258.143" x2="251.5" y2="342.351" gradientUnits="userSpaceOnUse">
<stop offset="0.0147" stop-color="#0A0A0A"/>
<stop offset="1" stop-color="#0E0E11"/>
</linearGradient>
<linearGradient id="paint27_linear_18_3018" x1="257.404" y1="222.178" x2="257.404" y2="342.351" gradientUnits="userSpaceOnUse">
<stop offset="0.0147" stop-color="#0A0A0A"/>
<stop offset="1" stop-color="#0A0A0A"/>
</linearGradient>
<linearGradient id="paint28_linear_18_3018" x1="257.404" y1="222.178" x2="257.404" y2="342.351" gradientUnits="userSpaceOnUse">
<stop offset="0.0147" stop-color="#0A0A0A"/>
<stop offset="1" stop-color="#0E0E11"/>
</linearGradient>
<linearGradient id="paint29_linear_18_3018" x1="297.912" y1="222.178" x2="297.912" y2="295.257" gradientUnits="userSpaceOnUse">
<stop offset="0.0147" stop-color="#0A0A0A"/>
<stop offset="1" stop-color="#0A0A0A"/>
</linearGradient>
<linearGradient id="paint30_linear_18_3018" x1="297.912" y1="222.178" x2="297.912" y2="295.257" gradientUnits="userSpaceOnUse">
<stop offset="0.0147" stop-color="#0A0A0A"/>
<stop offset="1" stop-color="#0E0E11"/>
</linearGradient>
<linearGradient id="paint31_linear_18_3018" x1="458.229" y1="240.637" x2="458.229" y2="307.984" gradientUnits="userSpaceOnUse">
<stop offset="0.0147" stop-color="#0A0A0A"/>
<stop offset="1" stop-color="#0A0A0A"/>
</linearGradient>
<linearGradient id="paint32_linear_18_3018" x1="458.229" y1="240.637" x2="458.229" y2="307.984" gradientUnits="userSpaceOnUse">
<stop offset="0.0147" stop-color="#0A0A0A"/>
<stop offset="1" stop-color="#0E0E11"/>
</linearGradient>
<linearGradient id="paint33_linear_18_3018" x1="446.898" y1="284.649" x2="446.898" y2="307.984" gradientUnits="userSpaceOnUse">
<stop offset="0.0147" stop-color="#0A0A0A"/>
<stop offset="1" stop-color="#0A0A0A"/>
</linearGradient>
<linearGradient id="paint34_linear_18_3018" x1="446.898" y1="284.649" x2="446.898" y2="307.984" gradientUnits="userSpaceOnUse">
<stop offset="0.0147" stop-color="#0A0A0A"/>
<stop offset="1" stop-color="#0E0E11"/>
</linearGradient>
<linearGradient id="paint35_linear_18_3018" x1="412.291" y1="284.649" x2="412.291" y2="319.321" gradientUnits="userSpaceOnUse">
<stop offset="0.0147" stop-color="#0A0A0A"/>
<stop offset="1" stop-color="#0A0A0A"/>
</linearGradient>
<linearGradient id="paint36_linear_18_3018" x1="412.291" y1="284.649" x2="412.291" y2="319.321" gradientUnits="userSpaceOnUse">
<stop offset="0.0147" stop-color="#0A0A0A"/>
<stop offset="1" stop-color="#0E0E11"/>
</linearGradient>
<linearGradient id="paint37_linear_18_3018" x1="397.097" y1="195.271" x2="397.097" y2="318.729" gradientUnits="userSpaceOnUse">
<stop offset="0.0147" stop-color="#0A0A0A"/>
<stop offset="1" stop-color="#0A0A0A"/>
</linearGradient>
<linearGradient id="paint38_linear_18_3018" x1="397.097" y1="195.271" x2="397.097" y2="318.729" gradientUnits="userSpaceOnUse">
<stop offset="0.0147" stop-color="#0A0A0A"/>
<stop offset="1" stop-color="#0E0E11"/>
</linearGradient>
<linearGradient id="paint39_linear_18_3018" x1="454.497" y1="195.737" x2="454.497" y2="239.526" gradientUnits="userSpaceOnUse">
<stop offset="0.0147" stop-color="#0A0A0A"/>
<stop offset="1" stop-color="#0A0A0A"/>
</linearGradient>
<linearGradient id="paint40_linear_18_3018" x1="454.497" y1="195.737" x2="454.497" y2="239.526" gradientUnits="userSpaceOnUse">
<stop offset="0.0147" stop-color="#0A0A0A"/>
<stop offset="1" stop-color="#0E0E11"/>
</linearGradient>
<linearGradient id="paint41_linear_18_3018" x1="436.638" y1="225.406" x2="436.638" y2="239.526" gradientUnits="userSpaceOnUse">
<stop offset="0.0147" stop-color="#0A0A0A"/>
<stop offset="1" stop-color="#0A0A0A"/>
</linearGradient>
<linearGradient id="paint42_linear_18_3018" x1="436.638" y1="225.406" x2="436.638" y2="239.526" gradientUnits="userSpaceOnUse">
<stop offset="0.0147" stop-color="#0A0A0A"/>
<stop offset="1" stop-color="#0E0E11"/>
</linearGradient>
<linearGradient id="paint43_linear_18_3018" x1="406.029" y1="225.022" x2="406.029" y2="289.285" gradientUnits="userSpaceOnUse">
<stop offset="0.0147" stop-color="#0A0A0A"/>
<stop offset="1" stop-color="#0A0A0A"/>
</linearGradient>
<linearGradient id="paint44_linear_18_3018" x1="406.029" y1="225.022" x2="406.029" y2="289.285" gradientUnits="userSpaceOnUse">
<stop offset="0.0147" stop-color="#0A0A0A"/>
<stop offset="1" stop-color="#0E0E11"/>
</linearGradient>
<linearGradient id="paint45_linear_18_3018" x1="414.819" y1="267.29" x2="414.819" y2="289.556" gradientUnits="userSpaceOnUse">
<stop offset="0.0147" stop-color="#0A0A0A"/>
<stop offset="1" stop-color="#0A0A0A"/>
</linearGradient>
<linearGradient id="paint46_linear_18_3018" x1="414.819" y1="267.29" x2="414.819" y2="289.556" gradientUnits="userSpaceOnUse">
<stop offset="0.0147" stop-color="#0A0A0A"/>
<stop offset="1" stop-color="#0E0E11"/>
</linearGradient>
<linearGradient id="paint47_linear_18_3018" x1="423.285" y1="267.29" x2="423.285" y2="276.41" gradientUnits="userSpaceOnUse">
<stop offset="0.0147" stop-color="#0A0A0A"/>
<stop offset="1" stop-color="#0A0A0A"/>
</linearGradient>
<linearGradient id="paint48_linear_18_3018" x1="423.285" y1="267.29" x2="423.285" y2="276.41" gradientUnits="userSpaceOnUse">
<stop offset="0.0147" stop-color="#0A0A0A"/>
<stop offset="1" stop-color="#0E0E11"/>
</linearGradient>
<linearGradient id="paint49_linear_18_3018" x1="437.67" y1="240.637" x2="437.67" y2="276.41" gradientUnits="userSpaceOnUse">
<stop offset="0.0147" stop-color="#0A0A0A"/>
<stop offset="1" stop-color="#0A0A0A"/>
</linearGradient>
<linearGradient id="paint50_linear_18_3018" x1="437.67" y1="240.637" x2="437.67" y2="276.41" gradientUnits="userSpaceOnUse">
<stop offset="0.0147" stop-color="#0A0A0A"/>
<stop offset="1" stop-color="#0E0E11"/>
</linearGradient>
<linearGradient id="paint51_linear_18_3018" x1="192.433" y1="263.85" x2="192.433" y2="347.434" gradientUnits="userSpaceOnUse">
<stop offset="0.0147" stop-color="#0A0A0A"/>
<stop offset="1" stop-color="#0A0A0A"/>
</linearGradient>
<linearGradient id="paint52_linear_18_3018" x1="192.433" y1="263.85" x2="192.433" y2="347.434" gradientUnits="userSpaceOnUse">
<stop offset="0.0147" stop-color="#0A0A0A"/>
<stop offset="1" stop-color="#0E0E11"/>
</linearGradient>
<linearGradient id="paint53_linear_18_3018" x1="147.379" y1="263.85" x2="147.379" y2="362.124" gradientUnits="userSpaceOnUse">
<stop offset="0.0147" stop-color="#0A0A0A"/>
<stop offset="1" stop-color="#0A0A0A"/>
</linearGradient>
<linearGradient id="paint54_linear_18_3018" x1="147.379" y1="263.85" x2="147.379" y2="362.124" gradientUnits="userSpaceOnUse">
<stop offset="0.0147" stop-color="#0A0A0A"/>
<stop offset="1" stop-color="#0E0E11"/>
</linearGradient>
<linearGradient id="paint55_linear_18_3018" x1="156.946" y1="235.16" x2="156.946" y2="362.124" gradientUnits="userSpaceOnUse">
<stop offset="0.0147" stop-color="#0A0A0A"/>
<stop offset="1" stop-color="#0A0A0A"/>
</linearGradient>
<linearGradient id="paint56_linear_18_3018" x1="156.946" y1="235.16" x2="156.946" y2="362.124" gradientUnits="userSpaceOnUse">
<stop offset="0.0147" stop-color="#0A0A0A"/>
<stop offset="1" stop-color="#0E0E11"/>
</linearGradient>
<linearGradient id="paint57_linear_18_3018" x1="216.928" y1="235.16" x2="216.928" y2="347.434" gradientUnits="userSpaceOnUse">
<stop offset="0.0147" stop-color="#0A0A0A"/>
<stop offset="1" stop-color="#0A0A0A"/>
</linearGradient>
<linearGradient id="paint58_linear_18_3018" x1="216.928" y1="235.16" x2="216.928" y2="347.434" gradientUnits="userSpaceOnUse">
<stop offset="0.0147" stop-color="#0A0A0A"/>
<stop offset="1" stop-color="#0E0E11"/>
</linearGradient>
</defs>
</svg>
